# xmcd CD database file
#
# Track frame offsets:
#	150
#	14303
#	30777
#	58817
#	85959
#	100840
#	121823
#	139797
#	164996
#	188332
#	206731
#	229187
#	248589
#	270363
#	283125
#
# Disc length: 4112 seconds
#
# Revision: 0
# Processed by: cddbd v1.4PL0 Copyright (c) Steve Scherf et al.
# Submitted via: CDex 1.51
#
DISCID=c8100e0f
DTITLE=Konrad Windisch - Konrad "Bones" Windisch live at Jazzland Vienna
DYEAR=2001
DGENRE=Blues
TTITLE0=Mojo Hand
TTITLE1=Bourgeois Blues
TTITLE2=Feel like going home
TTITLE3=How long Blues
TTITLE4=Good morning Blues
TTITLE5=Jitter Bug Swing
TTITLE6=Catfish
TTITLE7=Creole Belle
TTITLE8=Baby, you set my soul on fire
TTITLE9=Minnie the Moocher
TTITLE10=Mannish boy
TTITLE11=Kansas City
TTITLE12=When things go wrong
TTITLE13=Jhon the Revelator
TTITLE14=Midnight Special
EXTD=YEAR: 2001
EXTT0=
EXTT1=
EXTT2=
EXTT3=
EXTT4=
EXTT5=
EXTT6=
EXTT7=
EXTT8=
EXTT9=
EXTT10=
EXTT11=
EXTT12=
EXTT13=
EXTT14=
PLAYORDER=
